<svg width="1088" height="393" viewBox="0 0 1088 393" fill="none" xmlns="http://www.w3.org/2000/svg">
<path d="M60.2877 286.518C60.2877 298.116 50.8856 307.518 39.2877 307.518H21.5469C9.94887 307.518 0.546875 298.116 0.546875 286.518V29.8316C0.546875 18.2336 9.9489 8.83156 21.5469 8.83156H39.2877C50.8857 8.83156 60.2877 18.2336 60.2877 29.8316V286.518Z" fill="#C2FE00"/>
<path d="M133.372 286.518C133.372 298.116 123.97 307.518 112.372 307.518H97.5457C85.9477 307.518 76.5457 298.116 76.5457 286.518V127.103C76.5457 115.505 85.9478 106.103 97.5457 106.103H100.896C106.122 106.103 111.102 104.077 115.239 100.883C122.786 95.0528 131.051 90.4052 140.033 86.94C151.69 82.3576 163.833 80.0664 176.461 80.0664C190.06 80.0664 202.896 82.7048 214.97 87.9814C227.043 93.1192 237.589 100.27 246.609 109.435C255.629 118.461 262.707 129.084 267.841 141.303C273.114 153.384 275.751 166.298 275.751 180.045V286.518C275.751 298.116 266.349 307.518 254.751 307.518H239.924C228.326 307.518 218.924 298.116 218.924 286.518V180.045C218.924 174.213 217.814 168.728 215.594 163.59C213.374 158.314 210.321 153.731 206.435 149.843C202.55 145.955 198.039 142.9 192.905 140.679C187.77 138.457 182.289 137.346 176.461 137.346C170.493 137.346 164.873 138.457 159.6 140.679C154.327 142.9 149.747 145.955 145.862 149.843C141.976 153.731 138.923 158.314 136.703 163.59C134.482 168.728 133.372 174.213 133.372 180.045V286.518Z" fill="#C2FE00"/>
<path d="M345.483 371.5C345.483 383.098 336.081 392.5 324.483 392.5H309.24C297.642 392.5 288.24 383.098 288.24 371.5V132.31C288.24 120.712 297.642 111.31 309.24 111.31H316.305C321.675 111.31 326.798 109.201 330.906 105.742C334.266 102.913 337.807 100.186 341.528 97.5627C347.634 93.2581 353.948 89.5783 360.471 86.5234C367.132 83.3296 374.001 80.8302 381.078 79.025C388.155 77.2198 395.302 76.3172 402.518 76.3172C418.199 76.3172 432.909 79.1638 446.647 84.8571C460.524 90.4114 472.597 98.3264 482.866 108.602C493.274 118.878 501.462 131.306 507.429 145.886C513.396 160.327 513.794 176.365 513.794 194.001C513.794 212.33 513.396 228.854 507.429 243.573C501.462 258.154 493.274 270.581 482.866 280.857C472.597 290.994 460.524 298.77 446.647 304.185C432.909 309.601 418.199 312.309 402.518 312.309C397.522 312.309 392.527 311.753 387.531 310.642C382.674 309.532 377.817 308.074 372.96 306.268C368.242 304.324 363.524 302.172 358.805 299.811C352.815 296.723 345.483 300.97 345.483 307.709V371.5ZM459.345 194.001C459.345 184.558 457.818 176.088 454.765 168.589C451.851 161.091 447.827 154.773 442.692 149.635C437.558 144.358 431.521 140.331 424.583 137.554C417.644 134.777 410.289 133.388 402.518 133.388C394.747 133.388 387.392 134.777 380.454 137.554C373.654 140.331 367.687 144.358 362.552 149.635C357.418 154.773 353.324 161.091 350.271 168.589C347.357 176.088 345.9 184.558 345.9 194.001C345.9 203.026 347.357 211.289 350.271 218.787C353.324 226.285 357.418 232.673 362.552 237.95C367.687 243.226 373.654 247.323 380.454 250.239C387.392 253.155 394.747 254.613 402.518 254.613C410.289 254.613 417.644 253.155 424.583 250.239C431.521 247.323 437.558 243.226 442.692 237.95C447.827 232.673 451.851 226.285 454.765 218.787C457.818 211.289 459.345 203.026 459.345 194.001Z" fill="#C2FE00"/>
<path d="M721.336 307.31H712.417C704.919 307.31 698.161 303.163 693.449 297.331C689.661 292.64 685.117 288.499 682.072 290.647C676.104 294.812 669.79 298.492 663.129 301.686C656.468 304.741 649.599 307.171 642.522 308.976C635.583 310.781 628.506 311.684 621.29 311.684C605.609 311.684 590.83 309.046 576.953 303.769C563.215 298.492 551.141 290.855 540.734 280.857C530.465 270.72 522.347 258.362 516.379 243.782C510.412 229.201 513.794 212.608 513.794 194.001C513.794 176.643 510.412 160.744 516.379 146.302C522.347 131.722 530.465 119.225 540.734 108.81C551.141 98.3959 563.215 90.342 576.953 84.6488C590.83 78.8167 605.609 75.9006 621.29 75.9006C628.506 75.9006 635.653 76.8032 642.73 78.6084C649.807 80.4136 656.677 82.913 663.338 86.1068C669.999 89.3006 676.313 93.0498 682.28 97.3544C686.635 100.425 690.779 103.672 694.71 107.096C697.745 109.738 701.592 111.31 705.616 111.31C714.298 111.31 721.336 118.348 721.336 127.03V307.31ZM677.909 194.001C677.909 186.224 676.382 178.726 673.329 171.505C670.415 164.146 666.391 157.689 661.256 152.134C656.122 146.441 650.085 141.928 643.146 138.596C636.347 135.124 629.061 133.388 621.29 133.388C613.519 133.388 606.164 134.708 599.226 137.346C592.426 139.984 586.459 143.872 581.324 149.01C576.328 154.148 572.373 160.535 569.459 168.173C566.545 175.671 565.088 184.28 565.088 194.001C565.088 203.721 566.545 212.399 569.459 220.037C572.373 227.535 576.328 233.853 581.324 238.991C586.459 244.129 592.426 248.017 599.226 250.655C606.164 253.293 613.519 254.613 621.29 254.613C629.061 254.613 636.347 252.946 643.146 249.614C650.085 246.142 656.122 241.629 661.256 236.075C666.391 230.382 670.415 223.925 673.329 216.704C676.382 209.344 677.909 201.777 677.909 194.001Z" fill="#C2FE00"/>
<path d="M952.466 291.309C952.466 302.907 943.064 312.309 931.466 312.309H916.223C904.625 312.309 895.223 302.907 895.223 291.309V21.5C895.223 9.90203 904.625 0.5 916.223 0.5H931.466C943.064 0.5 952.466 9.90202 952.466 21.5V136.561C952.466 156.488 977.623 165.211 989.959 149.561L1030.88 97.6476C1034.86 92.5958 1040.94 89.6477 1047.37 89.6477H1059.01C1076.59 89.6477 1086.39 109.961 1075.44 123.721L1037.5 171.426C1032.15 178.142 1031.44 187.433 1035.68 194.891L1084.67 280.917C1092.64 294.917 1082.53 312.309 1066.42 312.309H1049.52C1041.91 312.309 1034.89 308.186 1031.18 301.534L1007.72 259.455C1000.33 246.195 981.743 244.919 972.607 257.043L956.695 278.162C953.951 281.803 952.466 286.239 952.466 290.799V291.309Z" fill="#C2FE00"/>
<path d="M791.397 288.206C791.397 299.804 781.995 309.206 770.397 309.206H755.571C743.973 309.206 734.571 299.804 734.571 288.206V95.1839C734.571 90.1829 738.625 86.1287 743.626 86.1287C746.563 86.1287 749.318 87.5534 751.016 89.9505L754.191 94.4342C761.021 104.078 774.727 105.373 785.036 99.5956C789.251 97.2333 793.661 95.1743 798.267 93.4188C809.923 88.8365 821.996 86.5453 834.486 86.5453H863.651C875.249 86.5453 884.651 95.9473 884.651 107.545V122.2C884.651 133.798 875.249 143.2 863.651 143.2H834.486C828.519 143.2 822.898 144.311 817.625 146.533C812.352 148.754 807.772 151.809 803.887 155.697C800.001 159.585 796.948 164.168 794.728 169.444C792.508 174.721 791.397 180.345 791.397 186.316V288.206Z" fill="#C2FE00"/>
</svg>
