<svg width="220" height="70" viewBox="0 0 220 70" fill="none" xmlns="http://www.w3.org/2000/svg">
<path d="M12.0921 51.0747C12.0921 53.1457 10.189 54.8247 7.8415 54.8247H4.25059C1.90305 54.8247 0 53.1457 0 51.0747V5.23778C0 3.16671 1.90306 1.48778 4.2506 1.48778H7.8415C10.189 1.48778 12.0921 3.16671 12.0921 5.23778V51.0747Z" fill="white"/>
<path d="M26.8851 51.0747C26.8851 53.1457 24.9821 54.8247 22.6345 54.8247H19.6335C17.2859 54.8247 15.3829 53.1457 15.3829 51.0747V22.6076C15.3829 20.5365 17.2859 18.8576 19.6335 18.8576H20.3115C21.3694 18.8576 22.3775 18.496 23.2147 17.9255C24.7424 16.8844 26.4153 16.0545 28.2334 15.4357C30.5928 14.6174 33.0505 14.2083 35.6066 14.2083C38.3593 14.2083 40.9575 14.6794 43.4012 15.6217C45.8449 16.5391 47.9796 17.8162 49.8053 19.4527C51.6311 21.0645 53.0636 22.9614 54.1029 25.1435C55.1702 27.3007 55.7039 29.6068 55.7039 32.0616V51.0747C55.7039 53.1457 53.8009 54.8247 51.4533 54.8247H48.4523C46.1047 54.8247 44.2017 53.1457 44.2017 51.0747V32.0616C44.2017 31.0202 43.977 30.0407 43.5276 29.1233C43.0781 28.181 42.4602 27.3627 41.6737 26.6684C40.8872 25.9741 39.9744 25.4286 38.9351 25.0319C37.8958 24.6351 36.7863 24.4368 35.6066 24.4368C34.3988 24.4368 33.2612 24.6351 32.1938 25.0319C31.1265 25.4286 30.1996 25.9741 29.4131 26.6684C28.6266 27.3627 28.0087 28.181 27.5592 29.1233C27.1098 30.0407 26.8851 31.0202 26.8851 32.0616V51.0747Z" fill="white"/>
<path d="M69.8184 66.25C69.8184 68.3211 67.9153 70 65.5678 70H62.4825C60.1349 70 58.2319 68.3211 58.2319 66.25V23.5375C58.2319 21.4664 60.1349 19.7875 62.4825 19.7875H63.9124C64.9994 19.7875 66.0364 19.411 66.8678 18.7933C67.548 18.288 68.2647 17.8011 69.0179 17.3326C70.2538 16.5639 71.5318 15.9068 72.8519 15.3613C74.2002 14.791 75.5906 14.3447 77.0231 14.0223C78.4556 13.7 79.9022 13.5388 81.3628 13.5388C84.5368 13.5388 87.5141 14.0471 90.2949 15.0638C93.1037 16.0556 95.5474 17.469 97.626 19.3039C99.7326 21.1389 101.39 23.3581 102.598 25.9617C103.805 28.5406 103.886 31.4045 103.886 34.5537C103.886 37.8268 103.805 40.7775 102.598 43.406C101.39 46.0096 99.7326 48.2288 97.626 50.0638C95.5474 51.8739 93.1037 53.2625 90.2949 54.2295C87.5141 55.1966 84.5368 55.6801 81.3628 55.6801C80.3516 55.6801 79.3404 55.5809 78.3292 55.3826C77.3461 55.1842 76.363 54.9238 75.3799 54.6015C74.4249 54.2543 73.4699 53.87 72.5149 53.4485C71.3024 52.897 69.8184 53.6553 69.8184 54.8588V66.25ZM92.865 34.5537C92.865 32.8675 92.556 31.3549 91.9381 30.0159C91.3482 28.6769 90.5337 27.5487 89.4944 26.6312C88.4551 25.689 87.2333 24.9699 85.8288 24.474C84.4244 23.978 82.9357 23.7301 81.3628 23.7301C79.7898 23.7301 78.3011 23.978 76.8967 24.474C75.5204 24.9699 74.3125 25.689 73.2733 26.6312C72.234 27.5487 71.4054 28.6769 70.7874 30.0159C70.1976 31.3549 69.9026 32.8675 69.9026 34.5537C69.9026 36.1654 70.1976 37.6408 70.7874 38.9798C71.4054 40.3188 72.234 41.4594 73.2733 42.4017C74.3125 43.344 75.5204 44.0755 76.8967 44.5962C78.3011 45.1169 79.7898 45.3773 81.3628 45.3773C82.9357 45.3773 84.4244 45.1169 85.8288 44.5962C87.2333 44.0755 88.4551 43.344 89.4944 42.4017C90.5337 41.4594 91.3482 40.3188 91.9381 38.9798C92.556 37.6408 92.865 36.1654 92.865 34.5537Z" fill="white"/>
<path d="M145.895 54.7875H144.089C142.572 54.7875 141.204 54.0469 140.25 53.0055C139.483 52.1679 138.564 51.4285 137.947 51.8119C136.739 52.5558 135.461 53.2129 134.113 53.7832C132.765 54.3287 131.374 54.7627 129.942 55.085C128.537 55.4074 127.105 55.5686 125.644 55.5686C122.47 55.5686 119.479 55.0974 116.67 54.1552C113.889 53.2129 111.446 51.8491 109.339 50.0638C107.26 48.2536 105.617 46.0468 104.409 43.4431C103.202 40.8395 103.886 37.8764 103.886 34.5537C103.886 31.4541 103.202 28.615 104.409 26.0361C105.617 23.4325 107.26 21.2009 109.339 19.3411C111.446 17.4814 113.889 16.0432 116.67 15.0266C119.479 13.9851 122.47 13.4644 125.644 13.4644C127.105 13.4644 128.551 13.6256 129.984 13.9479C131.416 14.2703 132.807 14.7166 134.155 15.2869C135.503 15.8572 136.781 16.5267 137.989 17.2954C138.871 17.8437 139.709 18.4236 140.505 19.035C141.119 19.5069 141.898 19.7875 142.713 19.7875C144.47 19.7875 145.895 21.0443 145.895 22.5947V54.7875ZM137.104 34.5537C137.104 33.1651 136.795 31.8261 136.177 30.5367C135.588 29.2225 134.773 28.0694 133.734 27.0776C132.694 26.0609 131.473 25.255 130.068 24.6599C128.692 24.04 127.217 23.7301 125.644 23.7301C124.071 23.7301 122.583 23.9656 121.178 24.4368C119.802 24.9079 118.594 25.6022 117.555 26.5197C116.544 27.4371 115.743 28.5778 115.153 29.9416C114.563 31.2806 114.268 32.8179 114.268 34.5537C114.268 36.2894 114.563 37.8392 115.153 39.203C115.743 40.542 116.544 41.6702 117.555 42.5877C118.594 43.5051 119.802 44.1994 121.178 44.6706C122.583 45.1417 124.071 45.3773 125.644 45.3773C127.217 45.3773 128.692 45.0797 130.068 44.4846C131.473 43.8647 132.694 43.0588 133.734 42.067C134.773 41.0503 135.588 39.8973 136.177 38.6079C136.795 37.2937 137.104 35.9423 137.104 34.5537Z" fill="white"/>
<path d="M192.677 51.9301C192.677 54.0012 190.774 55.6801 188.427 55.6801H185.342C182.994 55.6801 181.091 54.0012 181.091 51.9301V3.75C181.091 1.67893 182.994 0 185.342 0H188.427C190.774 0 192.677 1.67893 192.677 3.75V24.2966C192.677 27.855 197.769 29.4126 200.266 26.6181L208.549 17.3478C209.355 16.4457 210.585 15.9192 211.887 15.9192H214.243C217.801 15.9192 219.785 19.5467 217.569 22.0037L209.888 30.5225C208.807 31.7218 208.662 33.3809 209.521 34.7126L219.437 50.0744C221.05 52.5744 219.004 55.6801 215.743 55.6801H212.322C210.781 55.6801 209.36 54.9439 208.61 53.7561L203.861 46.242C202.365 43.8742 198.603 43.6462 196.754 45.8113L193.533 49.5825C192.978 50.2328 192.677 51.0249 192.677 51.8391V51.9301Z" fill="white"/>
<path d="M160.076 51.3761C160.076 53.4472 158.173 55.1261 155.825 55.1261H152.824C150.476 55.1261 148.573 53.4472 148.573 51.3761V16.9078C148.573 16.0148 149.394 15.2908 150.406 15.2908C151.001 15.2908 151.558 15.5453 151.902 15.9733L152.545 16.774C153.927 18.4961 156.701 18.7273 158.788 17.6956C159.641 17.2738 160.534 16.9061 161.466 16.5927C163.825 15.7744 166.269 15.3652 168.797 15.3652H174.7C177.048 15.3652 178.951 17.0442 178.951 19.1152V21.7321C178.951 23.8032 177.048 25.4821 174.7 25.4821H168.797C167.589 25.4821 166.452 25.6805 165.384 26.0772C164.317 26.474 163.39 27.0195 162.604 27.7138C161.817 28.4081 161.199 29.2264 160.75 30.1686C160.3 31.1109 160.076 32.1151 160.076 33.1814V51.3761Z" fill="white"/>
</svg>
