<svg width="154" height="51" viewBox="0 0 154 51" fill="none" xmlns="http://www.w3.org/2000/svg">
<path d="M8.41561 36.4897C8.41561 37.9694 7.09116 39.1689 5.45737 39.1689H2.95824C1.32445 39.1689 0 37.9694 0 36.4897V3.74208C0 2.26242 1.32445 1.06293 2.95824 1.06293H5.45737C7.09116 1.06293 8.41561 2.26242 8.41561 3.74208V36.4897Z" fill="black"/>
<path d="M18.711 36.4897C18.711 37.9694 17.3865 39.1689 15.7527 39.1689H13.6641C12.0303 39.1689 10.7059 37.9694 10.7059 36.4897V16.1518C10.7059 14.6721 12.0303 13.4726 13.6641 13.4726H14.136C14.8722 13.4726 15.5738 13.2143 16.1565 12.8067C17.2197 12.0629 18.384 11.47 19.6493 11.0279C21.2914 10.4433 23.0018 10.151 24.7808 10.151C26.6965 10.151 28.5047 10.4876 30.2055 11.1607C31.9062 11.8162 33.3918 12.7286 34.6625 13.8978C35.9332 15.0493 36.9301 16.4045 37.6534 17.9635C38.3963 19.5047 38.7677 21.1523 38.7677 22.9061V36.4897C38.7677 37.9694 37.4432 39.1689 35.8094 39.1689H33.7208C32.087 39.1689 30.7626 37.9694 30.7626 36.4897V22.9061C30.7626 22.162 30.6062 21.4623 30.2934 20.8068C29.9806 20.1336 29.5506 19.549 29.0032 19.053C28.4559 18.5569 27.8205 18.1672 27.0972 17.8838C26.374 17.6003 25.6018 17.4586 24.7808 17.4586C23.9402 17.4586 23.1485 17.6003 22.4056 17.8838C21.6628 18.1672 21.0177 18.5569 20.4703 19.053C19.923 19.549 19.4929 20.1336 19.1801 20.8068C18.8673 21.4623 18.711 22.162 18.711 22.9061V36.4897Z" fill="black"/>
<path d="M48.5908 47.3316C48.5908 48.8113 47.2663 50.0107 45.6325 50.0107H43.4853C41.8515 50.0107 40.527 48.8113 40.527 47.3316V16.8161C40.527 15.3364 41.8515 14.1369 43.4853 14.1369H44.4805C45.2369 14.1369 45.9587 13.8679 46.5373 13.4267C47.0107 13.0656 47.5094 12.7178 48.0336 12.3831C48.8938 11.8339 49.7832 11.3645 50.702 10.9747C51.6403 10.5673 52.608 10.2484 53.605 10.0181C54.6019 9.78779 55.6087 9.67264 56.6252 9.67264C58.8342 9.67264 60.9063 10.0358 62.8416 10.7621C64.7965 11.4708 66.4972 12.4805 67.9437 13.7915C69.4099 15.1024 70.5632 16.688 71.4038 18.5481C72.2444 20.3905 72.3005 22.4366 72.3005 24.6865C72.3005 27.0249 72.2444 29.1331 71.4038 31.0109C70.5632 32.871 69.4099 34.4566 67.9437 35.7675C66.4972 37.0608 64.7965 38.0528 62.8416 38.7437C60.9063 39.4346 58.8342 39.7801 56.6252 39.7801C55.9215 39.7801 55.2177 39.7092 54.514 39.5675C53.8298 39.4258 53.1456 39.2397 52.4614 39.0094C51.7967 38.7614 51.1321 38.4868 50.4674 38.1857C49.6236 37.7917 48.5908 38.3335 48.5908 39.1933V47.3316ZM64.6303 24.6865C64.6303 23.4818 64.4153 22.4012 63.9852 21.4446C63.5747 20.4879 63.0078 19.6819 62.2845 19.0264C61.5612 18.3532 60.7108 17.8395 59.7334 17.4852C58.756 17.1309 57.7199 16.9537 56.6252 16.9537C55.5305 16.9537 54.4944 17.1309 53.517 17.4852C52.5591 17.8395 51.7185 18.3532 50.9952 19.0264C50.2719 19.6819 49.6953 20.4879 49.2652 21.4446C48.8547 22.4012 48.6494 23.4818 48.6494 24.6865C48.6494 25.838 48.8547 26.8921 49.2652 27.8487C49.6953 28.8053 50.2719 29.6203 50.9952 30.2934C51.7185 30.9666 52.5591 31.4892 53.517 31.8613C54.4944 32.2333 55.5305 32.4193 56.6252 32.4193C57.7199 32.4193 58.756 32.2333 59.7334 31.8613C60.7108 31.4892 61.5612 30.9666 62.2845 30.2934C63.0078 29.6203 63.5747 28.8053 63.9852 27.8487C64.4153 26.8921 64.6303 25.838 64.6303 24.6865Z" fill="black"/>
<path d="M101.537 39.1423H100.28C99.2241 39.1423 98.272 38.6133 97.6083 37.8692C97.0746 37.2708 96.4346 36.7425 96.0056 37.0165C95.165 37.5479 94.2755 38.0174 93.3372 38.4248C92.3989 38.8146 91.4312 39.1246 90.4343 39.3549C89.4568 39.5852 88.4599 39.7004 87.4433 39.7004C85.2344 39.7004 83.1525 39.3638 81.1976 38.6906C79.2623 38.0174 77.5616 37.043 76.0955 35.7675C74.6489 34.4743 73.5053 32.8976 72.6647 31.0375C71.8241 29.1774 72.3005 27.0604 72.3005 24.6865C72.3005 22.4721 71.8241 20.4436 72.6647 18.6012C73.5053 16.7411 74.6489 15.1467 76.0955 13.8181C77.5616 12.4894 79.2623 11.4619 81.1976 10.7356C83.1525 9.99152 85.2344 9.6195 87.4433 9.6195C88.4599 9.6195 89.4666 9.73465 90.4636 9.96495C91.4605 10.1952 92.4282 10.5141 93.3665 10.9216C94.3049 11.329 95.1943 11.8074 96.0349 12.3565C96.6484 12.7483 97.2321 13.1625 97.786 13.5993C98.2135 13.9365 98.7553 14.1369 99.3222 14.1369C100.545 14.1369 101.537 15.0349 101.537 16.1426V39.1423ZM95.4191 24.6865C95.4191 23.6944 95.2041 22.7378 94.774 21.8166C94.3635 20.8777 93.7966 20.0539 93.0733 19.3453C92.35 18.619 91.4996 18.0432 90.5222 17.618C89.5643 17.1751 88.538 16.9537 87.4433 16.9537C86.3486 16.9537 85.3126 17.122 84.3351 17.4586C83.3773 17.7952 82.5367 18.2912 81.8134 18.9467C81.1096 19.6022 80.5525 20.4171 80.142 21.3914C79.7315 22.3481 79.5262 23.4464 79.5262 24.6865C79.5262 25.9266 79.7315 27.0338 80.142 28.0081C80.5525 28.9648 81.1096 29.7708 81.8134 30.4263C82.5367 31.0818 83.3773 31.5778 84.3351 31.9144C85.3126 32.251 86.3486 32.4193 87.4433 32.4193C88.538 32.4193 89.5643 32.2067 90.5222 31.7815C91.4996 31.3387 92.35 30.7629 93.0733 30.0543C93.7966 29.328 94.3635 28.5042 94.774 27.583C95.2041 26.6441 95.4191 25.6786 95.4191 24.6865Z" fill="black"/>
<path d="M134.096 37.1009C134.096 38.5806 132.771 39.7801 131.137 39.7801H128.99C127.356 39.7801 126.032 38.5806 126.032 37.1009V2.67915C126.032 1.1995 127.356 0 128.99 0H131.137C132.771 0 134.096 1.19949 134.096 2.67915V17.3585C134.096 19.9007 137.64 21.0135 139.377 19.017L145.142 12.3939C145.703 11.7494 146.559 11.3733 147.465 11.3733H149.104C151.581 11.3733 152.961 13.9649 151.419 15.7203L146.074 21.8065C145.321 22.6633 145.22 23.8486 145.818 24.8001L152.719 35.7752C153.842 37.5612 152.418 39.7801 150.149 39.7801H147.768C146.695 39.7801 145.706 39.2541 145.184 38.4055L141.879 33.0371C140.838 31.3454 138.22 31.1826 136.933 32.7294L134.691 35.4237C134.305 35.8883 134.096 36.4542 134.096 37.0359V37.1009Z" fill="black"/>
<path d="M111.406 36.7051C111.406 38.1848 110.082 39.3843 108.448 39.3843H106.359C104.726 39.3843 103.401 38.1848 103.401 36.7051V12.0796C103.401 11.4416 103.972 10.9244 104.677 10.9244C105.09 10.9244 105.479 11.1061 105.718 11.412L106.165 11.984C107.127 13.2144 109.058 13.3795 110.51 12.6425C111.104 12.3411 111.725 12.0784 112.374 11.8544C114.016 11.2698 115.717 10.9775 117.476 10.9775H121.584C123.218 10.9775 124.543 12.177 124.543 13.6567V15.5263C124.543 17.0059 123.218 18.2054 121.584 18.2054H117.476C116.635 18.2054 115.844 18.3472 115.101 18.6306C114.358 18.9141 113.713 19.3038 113.166 19.7998C112.618 20.2959 112.188 20.8805 111.875 21.5537C111.563 22.2268 111.406 22.9443 111.406 23.7061V36.7051Z" fill="black"/>
</svg>
